<svg width="189" height="60" viewBox="0 0 189 60" fill="none" xmlns="http://www.w3.org/2000/svg">
<path d="M188.56 30C188.56 46.5685 173.386 60 154.668 60C135.95 60 120.776 46.5685 120.776 30C120.776 13.4315 135.95 0 154.668 0C173.386 0 188.56 13.4315 188.56 30Z" fill="#DD7D38" fill-opacity="0.79"/>
<path d="M163.86 23.3644C163.29 23.3644 162.91 23.8373 162.91 24.1525V28.0932H161.01V24.1525C161.01 23.6796 160.63 23.3644 160.06 23.3644C159.49 23.3644 159.11 23.8373 159.11 24.1525V28.0932H157.21V24.1525C157.21 23.6796 156.83 23.3644 156.26 23.3644C155.69 23.3644 155.31 23.8373 155.31 24.1525V29.3542C155.31 30.7729 156.64 31.8763 158.16 32.0339V43.0678C158.16 44.0136 158.92 44.6441 160.06 44.6441C161.2 44.6441 161.96 44.0136 161.96 43.0678V32.0339C163.48 31.8763 164.81 30.7729 164.81 29.3542V24.1525C164.81 23.8373 164.43 23.3644 163.86 23.3644ZM167.66 24.1525V33.6102H169.56V43.0678C169.56 44.0136 170.32 44.6441 171.46 44.6441C172.6 44.6441 173.36 44.0136 173.36 43.0678V19.4237C170.13 19.4237 167.66 21.4729 167.66 24.1525ZM180.96 22.5763C178.3 22.5763 176.21 24.9407 176.21 27.778C176.02 29.6695 177.16 31.4034 179.06 32.5068V43.0678C179.06 44.0136 179.82 44.6441 180.96 44.6441C182.1 44.6441 182.86 44.0136 182.86 43.0678V32.5068C184.76 31.4034 185.9 29.6695 185.71 27.778C185.71 24.9407 183.62 22.5763 180.96 22.5763Z" fill="white"/>
<path d="M16.164 15.4548C16.092 15.9108 16.056 16.4988 16.056 17.2188C16.056 18.6348 16.224 19.7388 16.56 20.5308H15.984C15.72 20.0268 15.528 19.3668 15.408 18.5508C15.24 17.6868 15.012 17.0148 14.724 16.5348C14.436 16.0308 13.848 15.6108 12.96 15.2748C12.072 14.9388 10.74 14.7708 8.964 14.7708C7.236 14.7708 6.084 15.2028 5.508 16.0668C5.436 16.2348 5.4 16.4028 5.4 16.5708V25.7508H9.468C10.164 25.7508 10.644 25.7388 10.908 25.7148C11.196 25.6668 11.412 25.5588 11.556 25.3908C11.7 25.2228 11.772 24.9348 11.772 24.5268C11.772 23.8068 11.724 23.2668 11.628 22.9068C11.556 22.5468 11.316 22.3668 10.908 22.3668V21.8988H12.312V30.2508H10.908V29.7468C11.316 29.7468 11.556 29.5548 11.628 29.1708C11.724 28.7628 11.772 28.1868 11.772 27.4428C11.772 27.0588 11.604 26.7948 11.268 26.6508C10.932 26.5068 10.332 26.4348 9.468 26.4348H5.4V38.8908C5.4 39.3708 5.52 39.7428 5.76 40.0068C6.024 40.2468 6.384 40.3668 6.84 40.3668C7.224 40.3668 7.644 40.2948 8.1 40.1508V41.0508H0V40.1508C0.456 40.2948 0.876 40.3668 1.26 40.3668C1.716 40.3668 2.064 40.2468 2.304 40.0068C2.568 39.7428 2.7 39.3708 2.7 38.8908V16.5708C2.7 16.0908 2.568 15.7308 2.304 15.4908C2.064 15.2268 1.716 15.0948 1.26 15.0948C0.876 15.0948 0.456 15.1668 0 15.3108V14.4108H16.272L16.164 15.4548Z" fill="white"/>
<path d="M17.9831 40.5108C18.3911 40.6308 18.6911 40.6908 18.8831 40.6908C19.3151 40.6908 19.5911 40.5468 19.7111 40.2588C19.8311 39.9468 19.8911 39.4908 19.8911 38.8908V14.2308C19.6511 14.3028 19.3751 14.3388 19.0631 14.3388C18.7271 14.3388 18.3671 14.3028 17.9831 14.2308V13.2589H18.3071C18.3071 13.4029 18.4271 13.5468 18.6671 13.6908C18.9311 13.8108 19.1831 13.8708 19.4231 13.8708C19.9751 13.8708 20.4551 13.7268 20.8631 13.4388C21.2711 13.1268 21.4751 12.7308 21.4751 12.2508H22.1591L22.1231 38.8908C22.1231 39.5148 22.1711 39.9708 22.2671 40.2588C22.3871 40.5468 22.6391 40.6908 23.0231 40.6908C23.2151 40.6908 23.5151 40.6308 23.9231 40.5108V41.0508H17.9831V40.5108Z" fill="white"/>
<path d="M30.8379 41.4108C29.4939 41.4108 28.3659 41.0028 27.4539 40.1868C26.5419 39.3468 26.0859 38.1588 26.0859 36.6228C26.0859 35.5188 26.4579 34.5828 27.2019 33.8148C27.9459 33.0228 28.7619 32.4828 29.6499 32.1948C30.1059 32.0508 30.6339 31.9188 31.2339 31.7988C31.8579 31.6548 32.2779 31.5588 32.4939 31.5108C33.6939 31.2708 34.5939 31.0548 35.1939 30.8628C35.7939 30.6468 36.1539 30.3588 36.2739 29.9988C36.2739 28.2708 35.9379 26.8308 35.2659 25.6788C34.6179 24.5268 33.5259 23.9508 31.9899 23.9508C31.0299 23.9508 30.3099 24.2988 29.8299 24.9948C29.3739 25.6668 29.1459 26.5788 29.1459 27.7308C29.1459 28.0428 29.2059 28.2708 29.3259 28.4148C29.4459 28.5348 29.7219 28.5948 30.1539 28.5948C30.4179 28.5948 30.6459 28.5348 30.8379 28.4148C31.0299 28.2948 31.1259 28.1508 31.1259 27.9828H31.4499V28.9548H26.7339C26.7339 28.0908 26.9859 27.2388 27.4899 26.3988C27.9939 25.5348 28.6899 24.8388 29.5779 24.3108C30.4659 23.7588 31.4499 23.4828 32.5299 23.4828C33.9699 23.4828 35.1219 23.8188 35.9859 24.4908C36.8739 25.1388 37.4979 25.9308 37.8579 26.8668C38.2419 27.7788 38.4339 28.6908 38.4339 29.6028V37.4148C38.4339 39.2148 38.8179 40.1148 39.5859 40.1148C39.8259 40.1148 40.0419 39.9588 40.2339 39.6468C40.4499 39.3108 40.5579 38.9748 40.5579 38.6388H40.9179C40.9179 39.5268 40.6419 40.2108 40.0899 40.6908C39.5619 41.1708 38.9499 41.4108 38.2539 41.4108C37.4379 41.4108 36.8979 41.0508 36.6339 40.3308C36.3939 39.6108 36.2739 38.6028 36.2739 37.3068V35.6508C36.2739 35.9868 36.1059 36.6228 35.7699 37.5588C35.4579 38.4948 34.8939 39.3708 34.0779 40.1868C33.2619 41.0028 32.1819 41.4108 30.8379 41.4108ZM31.6659 40.4028C32.4819 40.4028 33.2379 40.0788 33.9339 39.4308C34.6299 38.7828 35.1819 38.0148 35.5899 37.1268C35.9979 36.2388 36.2019 35.4948 36.2019 34.8948V30.7908C36.2019 30.8628 36.0819 30.9348 35.8419 31.0068C35.6019 31.0788 35.3019 31.1508 34.9419 31.2228C33.3819 31.6308 32.2419 31.9668 31.5219 32.2308C30.3939 32.6388 29.5659 33.2148 29.0379 33.9588C28.5099 34.6788 28.2459 35.4948 28.2459 36.4068C28.2459 37.4628 28.5339 38.3988 29.1099 39.2148C29.7099 40.0068 30.5619 40.4028 31.6659 40.4028Z" fill="white"/>
<path d="M57.2144 24.2388V24.7788C56.9504 24.6828 56.6864 24.6348 56.4224 24.6348C55.8464 24.6348 55.3544 24.8268 54.9464 25.2108C54.5624 25.5708 54.3104 25.9428 54.1904 26.3268L49.5464 41.0508H47.5304L43.1384 26.6148C42.8504 25.3188 42.2504 24.6708 41.3384 24.6708C41.0744 24.6708 40.8104 24.7068 40.5464 24.7788V24.2388H46.8464V24.7788C46.4864 24.7068 46.1864 24.6708 45.9464 24.6708C45.6344 24.6708 45.3944 24.7308 45.2264 24.8508C45.0824 24.9708 45.0104 25.1268 45.0104 25.3188C45.0104 25.3908 45.0344 25.4988 45.0824 25.6428L49.2584 40.0428L53.6144 26.3268C53.6864 26.0628 53.7224 25.8228 53.7224 25.6068C53.7224 24.9348 53.3744 24.5988 52.6784 24.5988C52.3664 24.5988 52.0424 24.6588 51.7064 24.7788V24.2388H57.2144Z" fill="white"/>
<path d="M64.0117 41.4108C61.4677 41.4108 59.6317 40.6068 58.5037 38.9988C57.3997 37.3668 56.8477 35.1828 56.8477 32.4468C56.8477 29.9268 57.4117 27.8148 58.5397 26.1108C59.6677 24.3828 61.4917 23.5188 64.0117 23.5188C66.5317 23.5188 68.3557 24.3828 69.4837 26.1108C70.6357 27.8148 71.2117 29.9268 71.2117 32.4468C71.2117 35.1828 70.6477 37.3668 69.5197 38.9988C68.3917 40.6068 66.5557 41.4108 64.0117 41.4108ZM64.0117 40.9788C65.6437 40.9788 66.8317 40.1988 67.5757 38.6388C68.3197 37.0548 68.6917 34.9908 68.6917 32.4468C68.6917 30.0708 68.3077 28.0668 67.5397 26.4348C66.7717 24.7788 65.5957 23.9508 64.0117 23.9508C62.4277 23.9508 61.2517 24.7788 60.4837 26.4348C59.7397 28.0668 59.3677 30.0708 59.3677 32.4468C59.3677 34.9908 59.7397 37.0548 60.4837 38.6388C61.2277 40.1988 62.4037 40.9788 64.0117 40.9788Z" fill="white"/>
<path d="M83.0022 26.5428C83.0022 26.8308 82.9542 27.1548 82.8582 27.5148C82.7622 27.8748 82.7022 28.0908 82.6782 28.1628C82.4862 28.7868 82.3902 29.2068 82.3902 29.4228C82.3902 29.9028 82.7382 30.1428 83.4342 30.1428V30.5028C82.4502 30.5028 81.7422 30.2508 81.3102 29.7468C80.9022 29.2428 80.6982 28.5948 80.6982 27.8028C80.6982 27.4188 80.7342 27.0468 80.8062 26.6868C80.9502 25.9908 81.0222 25.4508 81.0222 25.0668C81.0222 24.6588 80.9382 24.3828 80.7702 24.2388C80.6262 24.0708 80.3862 23.9868 80.0502 23.9868C79.3542 23.9868 78.8142 24.7308 78.4302 26.2188C78.0462 27.6828 77.8542 29.3988 77.8542 31.3668V38.8908C77.8542 39.5148 77.9022 39.9708 77.9982 40.2588C78.1182 40.5468 78.3702 40.6908 78.7542 40.6908C78.9462 40.6908 79.2462 40.6308 79.6542 40.5108V41.0508H73.7142V40.5108C74.1222 40.6308 74.4222 40.6908 74.6142 40.6908C75.0462 40.6908 75.3222 40.5468 75.4422 40.2588C75.5622 39.9468 75.6222 39.4908 75.6222 38.8908V26.0748C75.2622 26.1948 74.8782 26.2548 74.4702 26.2548C74.3022 26.2548 74.0502 26.2308 73.7142 26.1828V25.2108H74.0382C74.0382 25.3788 74.1222 25.5228 74.2902 25.6428C74.4822 25.7628 74.6982 25.8228 74.9382 25.8228C75.2982 25.8228 75.6102 25.6908 75.8742 25.4268C76.1382 25.1628 76.4502 24.7668 76.8102 24.2388H77.1702L77.2062 27.1548H77.5662C77.8542 25.9068 78.2502 24.9948 78.7542 24.4188C79.2822 23.8188 79.8342 23.5188 80.4102 23.5188C81.2502 23.5188 81.8862 23.8308 82.3182 24.4548C82.7742 25.0788 83.0022 25.7748 83.0022 26.5428Z" fill="white"/>
<path d="M101.383 15.4548C101.311 15.9108 101.275 16.4988 101.275 17.2188C101.275 18.6348 101.443 19.7388 101.779 20.5308H101.203C100.939 20.0268 100.747 19.3668 100.627 18.5508C100.459 17.6868 100.231 17.0148 99.9427 16.5348C99.6547 16.0308 99.0667 15.6108 98.1787 15.2748C97.2907 14.9388 95.9587 14.7708 94.1827 14.7708C92.4548 14.7708 91.3027 15.2028 90.7268 16.0668C90.6548 16.2348 90.6188 16.4028 90.6188 16.5708V25.7508H94.6868C95.3828 25.7508 95.8627 25.7388 96.1267 25.7148C96.4147 25.6668 96.6308 25.5588 96.7747 25.3908C96.9187 25.2228 96.9908 24.9348 96.9908 24.5268C96.9908 23.8068 96.9427 23.2668 96.8467 22.9068C96.7747 22.5468 96.5347 22.3668 96.1267 22.3668V21.8988H97.5308V30.2508H96.1267V29.7468C96.5347 29.7468 96.7747 29.5548 96.8467 29.1708C96.9427 28.7628 96.9908 28.1868 96.9908 27.4428C96.9908 27.0588 96.8227 26.7948 96.4867 26.6508C96.1507 26.5068 95.5508 26.4348 94.6868 26.4348H90.6188V38.8908C90.6188 39.3708 90.7388 39.7428 90.9788 40.0068C91.2428 40.2468 91.6027 40.3668 92.0587 40.3668C92.4427 40.3668 92.8627 40.2948 93.3187 40.1508V41.0508H85.2188V40.1508C85.6748 40.2948 86.0947 40.3668 86.4788 40.3668C86.9348 40.3668 87.2828 40.2468 87.5228 40.0068C87.7868 39.7428 87.9187 39.3708 87.9187 38.8908V16.5708C87.9187 16.0908 87.7868 15.7308 87.5228 15.4908C87.2828 15.2268 86.9348 15.0948 86.4788 15.0948C86.0947 15.0948 85.6748 15.1668 85.2188 15.3108V14.4108H101.491L101.383 15.4548Z" fill="white"/>
<path d="M107.007 41.4108C106.119 41.4108 105.291 41.1828 104.523 40.7268C103.755 40.2468 103.143 39.5748 102.687 38.7108C102.255 37.8468 102.039 36.8268 102.039 35.6508L102.003 25.8948L101.463 25.9308C101.319 25.9308 101.055 25.9068 100.671 25.8588V24.8868H100.995C100.995 25.0548 101.079 25.1988 101.247 25.3188C101.439 25.4388 101.655 25.4988 101.895 25.4988C102.231 25.4988 102.531 25.3668 102.795 25.1028C103.059 24.8388 103.383 24.4308 103.767 23.8788H104.415V24.1668L104.379 36.0828C104.379 37.8108 104.607 39.0588 105.063 39.8268C105.519 40.5708 106.275 40.9428 107.331 40.9428C108.411 40.9428 109.335 40.5948 110.103 39.8988C110.871 39.1788 111.435 38.2788 111.795 37.1988C112.179 36.1188 112.371 35.0148 112.371 33.8868V25.8948L111.831 25.9308C111.687 25.9308 111.423 25.9068 111.039 25.8588V24.8868H111.363C111.363 25.0548 111.447 25.1988 111.615 25.3188C111.807 25.4388 112.023 25.4988 112.263 25.4988C112.599 25.4988 112.899 25.3668 113.163 25.1028C113.427 24.8388 113.751 24.4308 114.135 23.8788H114.783V38.8908C114.783 39.5148 114.831 39.9708 114.927 40.2588C115.047 40.5468 115.299 40.6908 115.683 40.6908C115.875 40.6908 116.175 40.6308 116.583 40.5108V41.0508H112.659V37.4868H112.299C111.747 38.6148 111.027 39.5508 110.139 40.2948C109.251 41.0388 108.207 41.4108 107.007 41.4108Z" fill="white"/>
<path d="M124.158 41.4108C122.166 41.4108 120.642 40.6428 119.586 39.1068L119.262 41.0508H118.794V34.6068H119.442C119.442 36.6708 119.778 38.2068 120.45 39.2148C121.122 40.1988 122.142 40.6908 123.51 40.6908C124.638 40.6908 125.478 40.3069 126.03 39.5388C126.582 38.7468 126.858 37.7388 126.858 36.5148C126.858 35.5308 126.51 34.7508 125.814 34.1748C125.142 33.5988 124.146 32.9988 122.826 32.3748C121.914 31.9428 121.194 31.5588 120.666 31.2228C120.138 30.8868 119.682 30.4668 119.298 29.9628C118.938 29.4588 118.758 28.8468 118.758 28.1268C118.758 26.6628 119.214 25.5348 120.126 24.7428C121.062 23.9268 122.238 23.5188 123.654 23.5188C124.494 23.5188 125.286 23.7228 126.03 24.1308C126.798 24.5148 127.242 24.9228 127.362 25.3548L127.614 23.5188H128.082V28.2348H127.542C127.542 27.1788 127.218 26.2308 126.57 25.3908C125.922 24.5508 125.07 24.1308 124.014 24.1308C122.07 24.1308 121.098 25.1988 121.098 27.3348C121.098 28.0788 121.374 28.6788 121.926 29.1348C122.478 29.5908 123.354 30.1308 124.554 30.7548C125.562 31.2828 126.378 31.7628 127.002 32.1948C127.626 32.6028 128.154 33.1428 128.586 33.8148C129.042 34.4868 129.27 35.3028 129.27 36.2628C129.27 37.0788 129.054 37.8828 128.622 38.6748C128.19 39.4668 127.578 40.1268 126.786 40.6548C126.018 41.1588 125.142 41.4108 124.158 41.4108Z" fill="white"/>
<path d="M138.956 41.4108C136.676 41.4108 134.972 40.6548 133.844 39.1428C132.716 37.6068 132.152 35.3748 132.152 32.4468C132.152 30.9108 132.392 29.4708 132.872 28.1268C133.352 26.7588 134.096 25.6549 135.104 24.8148C136.136 23.9508 137.396 23.5188 138.884 23.5188C141.308 23.5188 143.036 24.2628 144.068 25.7508C145.1 27.2148 145.616 28.9788 145.616 31.0428C145.616 31.4028 145.592 31.8708 145.544 32.4468L145.508 32.7708H134.672C134.768 38.1468 136.268 40.8348 139.172 40.8348C140.468 40.8348 141.428 40.4388 142.052 39.6468C142.676 38.8548 142.988 37.9548 142.988 36.9468C142.988 36.5388 142.88 36.2388 142.664 36.0468C142.472 35.8548 142.22 35.7588 141.908 35.7588C141.668 35.7588 141.452 35.8308 141.26 35.9748C141.092 36.0948 141.008 36.2508 141.008 36.4428H140.684V35.4708H145.256C145.328 36.3828 145.1 37.2948 144.572 38.2068C144.068 39.1188 143.324 39.8748 142.34 40.4748C141.356 41.0748 140.228 41.3868 138.956 41.4108ZM142.16 32.2308C142.592 32.2308 142.844 32.1948 142.916 32.1228C143.012 32.0268 143.072 31.8108 143.096 31.4748C143.12 31.2108 143.132 30.8148 143.132 30.2868C143.132 28.4628 142.796 26.9508 142.124 25.7508C141.452 24.5508 140.324 23.9508 138.74 23.9508C137.204 23.9508 136.148 24.7068 135.572 26.2188C134.996 27.7308 134.696 29.7348 134.672 32.2308H142.16Z" fill="white"/>
</svg>
